<?xml version="1.0" encoding="iso-8859-1"?>
<!-- Generator: Adobe Illustrator 19.0.0, SVG Export Plug-In . SVG Version: 6.00 Build 0)  -->
<svg version="1.1" id="Capa_1" xmlns="http://www.w3.org/2000/svg" xmlns:xlink="http://www.w3.org/1999/xlink" x="0px" y="0px"
	 viewBox="0 0 512 512" style="enable-background:new 0 0 512 512;" xml:space="preserve">
<g>
	<g>
		<path d="M476.632,205.069L306.928,35.366c-5.857-5.858-15.355-5.858-21.213,0L243.29,77.791
			c-33.187,33.187-45.417,79-36.98,121.832L13.159,392.774c-17.545,17.546-17.545,46.094,0,63.638l42.427,42.427
			c8.773,8.774,20.294,13.159,31.819,13.159c11.522,0,23.048-4.388,31.82-13.159l193.151-193.151
			c42.793,8.429,88.616-3.763,121.832-36.98l42.426-42.426C482.49,220.424,482.49,210.927,476.632,205.069z M98.011,477.625
			c-5.848,5.849-15.364,5.85-21.213,0l-42.427-42.427c-5.848-5.849-5.848-15.365,0-21.213l10.607-10.607l63.64,63.639
			L98.011,477.625z M193.469,382.167l-10.606-10.607c-5.862-5.862-5.863-15.35,0-21.213c5.848-5.848,15.365-5.849,21.213,0
			l10.606,10.607L193.469,382.167z M235.896,339.741l-10.607-10.606c-17.545-17.546-46.094-17.545-63.638,0
			c-17.586,17.586-17.589,46.051,0,63.638l10.607,10.607l-42.426,42.427l-63.639-63.639l150.689-150.689
			c6.53,13.641,15.399,26.22,26.409,37.23c11.01,11.01,23.59,19.879,37.23,26.409L235.896,339.741z M264.502,247.496
			c-38.023-38.024-40.173-96.779-9.859-137.138l146.998,146.998C360.756,288.063,302.107,285.102,264.502,247.496z M423.599,236.889
			L275.109,88.397l21.213-21.213l148.491,148.491L423.599,236.889z"/>
	</g>
</g>
<g>
	<g>
		<path d="M477.606,34.395c-5.857-5.858-15.355-5.858-21.213,0l-30,30c-5.858,5.858-5.858,15.355,0,21.213
			c5.857,5.858,15.356,5.859,21.213,0l30-30C483.464,49.75,483.464,40.253,477.606,34.395z"/>
	</g>
</g>
<g>
	<g>
		<path d="M377.001,0.002c-8.284,0-15,6.716-15,15v30c0,8.284,6.716,15,15,15s14.8-6.716,14.8-15v-30
			C391.801,6.718,385.285,0.002,377.001,0.002z"/>
	</g>
</g>
<g>
	<g>
		<path d="M497,120.201h-30c-8.284,0-15,6.516-15,14.8s6.716,15,15,15h30c8.284,0,15-6.716,15-15S505.284,120.201,497,120.201z"/>
	</g>
</g>
<g>
</g>
<g>
</g>
<g>
</g>
<g>
</g>
<g>
</g>
<g>
</g>
<g>
</g>
<g>
</g>
<g>
</g>
<g>
</g>
<g>
</g>
<g>
</g>
<g>
</g>
<g>
</g>
<g>
</g>
</svg>
